<svg width="27" height="27" viewBox="0 0 27 27" fill="none" xmlns="http://www.w3.org/2000/svg">
<path fill-rule="evenodd" clip-rule="evenodd" d="M17.6081 1.46193C18.973 2.07783 19.3905 4.22277 19.9486 4.91221C20.5068 5.60165 21.3054 5.83607 21.7473 5.83607C24.0959 5.83607 26 7.99479 26 10.656V19.5346C26 23.1043 23.4459 26 20.2973 26H6.7027C3.5527 26 1 23.1043 1 19.5346V10.656C1 7.99479 2.90405 5.83607 5.2527 5.83607C5.69324 5.83607 6.49189 5.60165 7.05135 4.91221C7.60946 4.22277 8.02568 2.07783 9.39054 1.46193C10.7568 0.846024 16.2432 0.846024 17.6081 1.46193Z" stroke="#0F0303" stroke-width="1.5" stroke-linecap="round" stroke-linejoin="round"/>
<path d="M20.9259 9.80951H20.9381" stroke="#0F0303" stroke-width="2" stroke-linecap="round" stroke-linejoin="round"/>
<path fill-rule="evenodd" clip-rule="evenodd" d="M17.7955 15.3683C17.7955 12.678 15.8725 10.4978 13.4996 10.4978C11.1266 10.4978 9.20361 12.678 9.20361 15.3683C9.20361 18.0587 11.1266 20.2389 13.4996 20.2389C15.8725 20.2389 17.7955 18.0587 17.7955 15.3683Z" stroke="#0F0303" stroke-width="1.5" stroke-linecap="round" stroke-linejoin="round"/>
</svg>
