<svg width="18" height="18" viewBox="0 0 18 18" fill="none" xmlns="http://www.w3.org/2000/svg">
<path d="M8.99997 3.23301L8.86385 3.02239C8.86351 3.02186 8.86317 3.02132 8.86283 3.02078C8.03021 1.71262 6.947 0.955776 5.625 0.955776H5.125V1C4.84785 1.03804 4.56739 1.10774 4.27984 1.20989C1.71713 2.10527 0.850341 4.66834 0.850041 6.64567C0.840697 8.97635 1.92881 11.0692 3.44291 12.7898C4.95812 14.5117 6.93019 15.8972 8.77484 16.8274L8.99997 16.9409L9.2251 16.8274C11.0697 15.8972 13.0418 14.5117 14.557 12.7898C16.0711 11.0692 17.1592 8.97634 17.1499 6.64566L8.99997 3.23301ZM8.99997 3.23301L9.137 3.02095C9.13718 3.02068 9.13735 3.0204 9.13753 3.02013L8.99997 3.23301ZM11.4085 0.632717C12.1345 0.425547 12.937 0.455833 13.8019 0.759694C16.0389 1.54924 17.4914 3.76428 17.4999 6.64817L17.4999 6.64932C17.5126 9.07053 16.4585 11.2513 14.8572 13.0945C13.2551 14.9385 11.1258 16.4188 9.05431 17.4213C9.05361 17.4217 9.05291 17.422 9.05221 17.4223L8.99997 17.447L8.94773 17.4223C8.94701 17.422 8.9463 17.4217 8.94559 17.4213C6.87426 16.4189 4.74725 14.9387 3.14632 13.0935C1.54625 11.2493 0.491587 9.0656 0.500051 6.63863L0.500051 6.63836C0.508558 3.76318 1.96172 1.53995 4.19673 0.760156L4.19777 0.75979C5.06279 0.455839 5.86539 0.425525 6.5914 0.632717C7.31862 0.840254 8.00475 1.29638 8.6177 2.02339L8.99997 2.47679L9.38223 2.02339C9.99518 1.29638 10.6813 0.840254 11.4085 0.632717Z" fill="#D73838" stroke="#D73838"/>
</svg>
