<svg width="28" height="28" viewBox="0 0 28 28" fill="none" xmlns="http://www.w3.org/2000/svg">
<path d="M22.8916 17.8033C22.5616 19.3053 21.6747 20.6889 20.3503 21.7678C19.026 22.8466 17.3278 23.569 15.4843 23.8376C15.4143 23.8467 15.3436 23.8515 15.2727 23.8518C14.9535 23.8518 14.6459 23.7539 14.411 23.5777C14.1762 23.4016 14.0311 23.1599 14.0047 22.9006C13.9783 22.6414 14.0724 22.3835 14.2684 22.1782C14.4643 21.9728 14.7479 21.835 15.0627 21.792C17.6989 21.4303 19.9357 19.6077 20.3827 17.4558C20.4393 17.1846 20.6257 16.9427 20.9011 16.7835C21.1765 16.6243 21.5182 16.5607 21.8511 16.6068C22.184 16.6528 22.4809 16.8048 22.6763 17.0292C22.8717 17.2535 22.9497 17.532 22.8932 17.8033H22.8916ZM28 16.5925C28 19.618 26.525 22.5195 23.8995 24.6588C21.274 26.7981 17.713 28 14 28C10.287 28 6.72601 26.7981 4.10051 24.6588C1.475 22.5195 0 19.618 0 16.5925C0 12.9732 1.75 9.27227 5.19591 5.59335C5.30499 5.47686 5.44312 5.38053 5.60121 5.3107C5.7593 5.24087 5.93375 5.19913 6.11308 5.18823C6.2924 5.17732 6.47253 5.19751 6.64158 5.24746C6.81064 5.2974 6.96478 5.37597 7.09386 5.47798L10.9311 8.51263L14.4311 0.681647C14.5011 0.52546 14.616 0.385261 14.7664 0.272868C14.9167 0.160476 15.0981 0.0791854 15.295 0.0358497C15.492 -0.0074861 15.6989 -0.0115967 15.8983 0.0238644C16.0976 0.0593256 16.2836 0.133319 16.4405 0.239607C19.9198 2.5924 28 8.88597 28 16.5925ZM25.4545 16.5925C25.4545 10.6178 19.7607 5.45465 16.1939 2.80889L12.6509 10.7254C12.5782 10.888 12.4567 11.0332 12.2975 11.1477C12.1383 11.2623 11.9464 11.3425 11.7394 11.3812C11.5324 11.4199 11.3168 11.4157 11.1123 11.3691C10.9077 11.3225 10.7208 11.2349 10.5684 11.1143L6.37318 7.79837C3.8325 10.7864 2.54545 13.7406 2.54545 16.5925C2.54545 19.0679 3.75227 21.4419 5.90041 23.1922C8.04856 24.9426 10.9621 25.9259 14 25.9259C17.0379 25.9259 19.9514 24.9426 22.0996 23.1922C24.2477 21.4419 25.4545 19.0679 25.4545 16.5925Z" fill="white"/>
</svg>
