<svg width="25" height="25" viewBox="0 0 25 25" fill="none" xmlns="http://www.w3.org/2000/svg">
<path d="M17.958 14.9747C17.7554 16.1062 17.211 17.1486 16.3981 17.9613C15.5852 18.7741 14.5427 19.3183 13.4111 19.5206C13.3682 19.5275 13.3248 19.5311 13.2812 19.5313C13.0853 19.5313 12.8965 19.4576 12.7523 19.3249C12.6081 19.1921 12.5191 19.0101 12.5029 18.8148C12.4867 18.6195 12.5444 18.4252 12.6647 18.2705C12.785 18.1158 12.9591 18.012 13.1523 17.9796C14.7705 17.7071 16.1436 16.3341 16.418 14.713C16.4527 14.5086 16.5671 14.3264 16.7362 14.2065C16.9052 14.0865 17.115 14.0386 17.3193 14.0733C17.5237 14.108 17.7059 14.2225 17.8258 14.3915C17.9458 14.5606 17.9937 14.7703 17.959 14.9747H17.958ZM21.0938 14.0626C21.0938 16.3418 20.1883 18.5276 18.5767 20.1393C16.9651 21.7509 14.7792 22.6563 12.5 22.6563C10.2208 22.6563 8.03494 21.7509 6.4233 20.1393C4.81166 18.5276 3.90625 16.3418 3.90625 14.0626C3.90625 11.336 4.98047 8.54794 7.0957 5.77645C7.16266 5.6887 7.24745 5.61612 7.34449 5.56352C7.44153 5.51091 7.54862 5.47947 7.6587 5.47126C7.76877 5.46304 7.87934 5.47825 7.98311 5.51588C8.08689 5.5535 8.18151 5.61269 8.26074 5.68954L10.6162 7.97567L12.7646 2.07626C12.8076 1.9586 12.8782 1.85298 12.9704 1.76831C13.0627 1.68364 13.174 1.6224 13.295 1.58975C13.4159 1.5571 13.5429 1.55401 13.6652 1.58072C13.7876 1.60744 13.9017 1.66318 13.998 1.74325C16.1338 3.51571 21.0938 8.25692 21.0938 14.0626ZM19.5312 14.0626C19.5312 9.56161 16.0361 5.67196 13.8467 3.6788L11.6719 9.64266C11.6272 9.76515 11.5527 9.87453 11.4549 9.96082C11.3572 10.0471 11.2394 10.1076 11.1124 10.1367C10.9853 10.1658 10.8529 10.1627 10.7274 10.1276C10.6018 10.0924 10.4871 10.0265 10.3936 9.93563L7.81836 7.43759C6.25879 9.68856 5.46875 11.9141 5.46875 14.0626C5.46875 15.9274 6.20954 17.7158 7.52816 19.0344C8.84677 20.353 10.6352 21.0938 12.5 21.0938C14.3648 21.0938 16.1532 20.353 17.4718 19.0344C18.7905 17.7158 19.5312 15.9274 19.5312 14.0626Z" fill="white"/>
</svg>
