<svg width="26" height="25" viewBox="0 0 26 25" fill="none" xmlns="http://www.w3.org/2000/svg">
<path fill-rule="evenodd" clip-rule="evenodd" d="M11.5956 0.126932C9.88442 0.378579 7.74589 1.26928 6.27833 2.34171C5.36463 3.00941 3.84253 4.63837 3.20632 5.62955C1.72725 7.93321 0.982341 10.996 1.26836 13.5972C1.46386 15.3744 2.20481 17.7308 3.07041 19.3285C3.23649 19.6351 3.37239 19.9426 3.37239 20.012C3.37239 20.0815 2.7426 21.1774 1.97284 22.4475C1.20307 23.7176 0.540634 24.8141 0.500693 24.8841C0.452714 24.9684 2.89729 25.0073 7.74305 24.9989C14.7195 24.9868 15.1066 24.9739 16.1091 24.7204C23.0713 22.9592 27.0595 15.7149 24.9231 8.71044C23.1531 2.9074 17.4905 -0.73957 11.5956 0.126932ZM15.2717 2.07759C19.4003 2.89111 22.6399 6.18952 23.474 10.4291C23.7951 12.0612 23.676 14.1966 23.1755 15.7823C22.2934 18.5768 20.5004 20.7019 17.9021 22.0326C15.8062 23.1061 15.2581 23.1739 9.00324 23.1345L3.74039 23.1012L4.67153 21.558L5.60267 20.0146L5.08418 19.1383C4.42187 18.0185 3.84809 16.6561 3.42791 15.2054C3.1566 14.2688 3.09391 13.7913 3.08464 12.5947C3.06201 9.63668 3.96755 7.29149 5.95361 5.16497C7.53617 3.47043 9.7249 2.28974 11.8429 1.98817C12.706 1.86515 14.421 1.90987 15.2717 2.07759ZM7.82405 13.0458V14.0062L8.78239 13.9691L9.74073 13.9319L9.77709 13.0086L9.81345 12.0853H8.81875H7.82405V13.0458ZM12.3994 13.0404V13.9955H13.3268H14.2542V13.0404V12.0853H13.3268H12.3994V13.0404ZM16.8765 13.0086L16.9128 13.9319L17.8712 13.9691L18.8295 14.0062V13.0458V12.0853H17.8348H16.8401L16.8765 13.0086Z" fill="white"/>
</svg>
