<svg width="25" height="25" viewBox="0 0 25 25" fill="none" xmlns="http://www.w3.org/2000/svg">
<path d="M13.6719 12.5C13.6719 12.7318 13.6031 12.9583 13.4744 13.151C13.3456 13.3438 13.1626 13.494 12.9485 13.5827C12.7343 13.6714 12.4987 13.6946 12.2714 13.6493C12.0441 13.6041 11.8352 13.4925 11.6714 13.3286C11.5075 13.1647 11.3959 12.9559 11.3506 12.7286C11.3054 12.5013 11.3286 12.2657 11.4173 12.0515C11.506 11.8374 11.6562 11.6544 11.8489 11.5256C12.0417 11.3968 12.2682 11.3281 12.5 11.3281C12.8108 11.3281 13.1089 11.4516 13.3286 11.6713C13.5484 11.8911 13.6719 12.1892 13.6719 12.5ZM8.20312 11.3281C7.97135 11.3281 7.74478 11.3968 7.55207 11.5256C7.35935 11.6544 7.20915 11.8374 7.12045 12.0515C7.03176 12.2657 7.00855 12.5013 7.05377 12.7286C7.09898 12.9559 7.21059 13.1647 7.37448 13.3286C7.53837 13.4925 7.74718 13.6041 7.9745 13.6493C8.20182 13.6946 8.43745 13.6714 8.65158 13.5827C8.86571 13.494 9.04874 13.3438 9.1775 13.151C9.30627 12.9583 9.375 12.7318 9.375 12.5C9.375 12.1892 9.25154 11.8911 9.03177 11.6713C8.812 11.4516 8.51393 11.3281 8.20312 11.3281ZM16.7969 11.3281C16.5651 11.3281 16.3385 11.3968 16.1458 11.5256C15.9531 11.6544 15.8029 11.8374 15.7142 12.0515C15.6255 12.2657 15.6023 12.5013 15.6475 12.7286C15.6927 12.9559 15.8043 13.1647 15.9682 13.3286C16.1321 13.4925 16.3409 13.6041 16.5683 13.6493C16.7956 13.6946 17.0312 13.6714 17.2453 13.5827C17.4595 13.494 17.6425 13.3438 17.7713 13.151C17.9 12.9583 17.9688 12.7318 17.9688 12.5C17.9688 12.1892 17.8453 11.8911 17.6255 11.6713C17.4057 11.4516 17.1077 11.3281 16.7969 11.3281ZM22.6562 12.5C22.6566 14.2534 22.203 15.9771 21.3396 17.5033C20.4762 19.0294 19.2324 20.306 17.7292 21.2088C16.226 22.1116 14.5147 22.6099 12.7619 22.6551C11.009 22.7003 9.27427 22.2909 7.72656 21.4668L4.40137 22.5752C4.12606 22.667 3.83062 22.6803 3.54817 22.6137C3.26572 22.547 3.00741 22.403 2.8022 22.1978C2.59699 21.9926 2.45298 21.7343 2.38633 21.4518C2.31967 21.1694 2.33299 20.8739 2.4248 20.5986L3.5332 17.2734C2.80874 15.9113 2.4041 14.4021 2.35 12.8603C2.2959 11.3185 2.59376 9.78462 3.22097 8.37512C3.84818 6.96561 4.78825 5.71751 5.96984 4.72556C7.15143 3.73361 8.54347 3.02389 10.0403 2.65025C11.5371 2.27662 13.0994 2.2489 14.6086 2.56919C16.1177 2.88949 17.534 3.54938 18.7501 4.49878C19.9661 5.44819 20.9499 6.66215 21.6267 8.04851C22.3035 9.43488 22.6556 10.9572 22.6562 12.5ZM21.0938 12.5C21.0934 11.1817 20.7897 9.88126 20.2063 8.69915C19.6229 7.51703 18.7754 6.48498 17.7293 5.68283C16.6832 4.88068 15.4666 4.32994 14.1736 4.07321C12.8806 3.81649 11.5459 3.86067 10.2727 4.20233C8.99949 4.54398 7.82197 5.17397 6.8312 6.04353C5.84044 6.9131 5.06301 7.99893 4.55904 9.21704C4.05508 10.4351 3.8381 11.7529 3.9249 13.0682C4.01169 14.3836 4.39993 15.6614 5.05957 16.8027C5.11493 16.8985 5.14931 17.005 5.16042 17.1151C5.17153 17.2252 5.15913 17.3364 5.12402 17.4414L3.90625 21.0937L7.55859 19.876C7.63815 19.8488 7.72162 19.835 7.80566 19.8349C7.94287 19.8352 8.0776 19.8716 8.19629 19.9404C9.50273 20.6963 10.9852 21.0948 12.4946 21.0957C14.0039 21.0967 15.4869 20.7001 16.7943 19.9458C18.1017 19.1916 19.1874 18.1064 19.9422 16.7993C20.6969 15.4922 21.0941 14.0093 21.0938 12.5Z" fill="white"/>
</svg>
