<svg width="25" height="25" viewBox="0 0 25 25" fill="none" xmlns="http://www.w3.org/2000/svg">
<path d="M19.1111 3H5.88889C5.38792 3 4.90748 3.16857 4.55324 3.46864C4.19901 3.7687 4 4.17568 4 4.60003V22.2004C4.00008 22.3432 4.04527 22.4833 4.13087 22.6063C4.21648 22.7293 4.33937 22.8306 4.48681 22.8998C4.63425 22.969 4.80086 23.0035 4.96935 22.9997C5.13784 22.996 5.30207 22.9541 5.445 22.8784L12.5 19.1433L19.5562 22.8784C19.6991 22.9538 19.8632 22.9955 20.0315 22.9991C20.1998 23.0027 20.3662 22.9682 20.5135 22.899C20.6607 22.8299 20.7835 22.7287 20.869 22.6058C20.9546 22.483 20.9998 22.343 21 22.2004V4.60003C21 4.17568 20.801 3.7687 20.4468 3.46864C20.0925 3.16857 19.6121 3 19.1111 3ZM19.1111 20.7574L12.9994 17.5223C12.8493 17.4428 12.6758 17.4007 12.4988 17.4007C12.3218 17.4007 12.1484 17.4428 11.9983 17.5223L5.88889 20.7574V4.60003H19.1111V20.7574Z" fill="white"/>
</svg>
