<svg width="25" height="25" viewBox="0 0 25 25" fill="none" xmlns="http://www.w3.org/2000/svg">
<path d="M12.5 2.34375C10.4913 2.34375 8.52768 2.9394 6.85749 4.05539C5.18731 5.17137 3.88556 6.75756 3.11685 8.61337C2.34815 10.4692 2.14702 12.5113 2.5389 14.4814C2.93079 16.4515 3.89807 18.2612 5.31845 19.6816C6.73883 21.1019 8.5485 22.0692 10.5186 22.4611C12.4887 22.853 14.5308 22.6519 16.3866 21.8832C18.2424 21.1144 19.8286 19.8127 20.9446 18.1425C22.0606 16.4723 22.6563 14.5087 22.6563 12.5C22.6534 9.80727 21.5825 7.22564 19.6784 5.32159C17.7744 3.41754 15.1927 2.34659 12.5 2.34375ZM12.5 21.0938C10.8003 21.0938 9.13881 20.5897 7.72557 19.6454C6.31234 18.7011 5.21086 17.359 4.56041 15.7887C3.90997 14.2184 3.73979 12.4905 4.07138 10.8234C4.40297 9.15642 5.22145 7.62516 6.42331 6.4233C7.62516 5.22144 9.15642 4.40297 10.8234 4.07138C12.4905 3.73978 14.2184 3.90997 15.7887 4.56041C17.359 5.21085 18.7012 6.31233 19.6454 7.72557C20.5897 9.1388 21.0938 10.8003 21.0938 12.5C21.0912 14.7784 20.1849 16.9628 18.5738 18.5738C16.9628 20.1849 14.7784 21.0912 12.5 21.0938ZM16.8379 7.11328L10.5879 10.2383C10.4368 10.3142 10.3142 10.4368 10.2383 10.5879L7.11329 16.8379C7.05366 16.957 7.0255 17.0895 7.03148 17.2226C7.03746 17.3557 7.07739 17.485 7.14746 17.5984C7.21752 17.7117 7.31541 17.8052 7.43182 17.87C7.54822 17.9349 7.67927 17.9688 7.8125 17.9688C7.93379 17.9686 8.05341 17.9405 8.16211 17.8867L14.4121 14.7617C14.5632 14.6858 14.6858 14.5632 14.7617 14.4121L17.8867 8.16211C17.9605 8.01536 17.9861 7.84911 17.9599 7.68698C17.9338 7.52485 17.8572 7.37508 17.7411 7.25895C17.6249 7.14282 17.4752 7.06625 17.313 7.0401C17.1509 7.01395 16.9846 7.03955 16.8379 7.11328ZM13.4766 13.4766L9.55957 15.4404L11.5234 11.5234L15.4443 9.56348L13.4766 13.4766Z" fill="white"/>
</svg>
