<svg width="25" height="25" viewBox="0 0 25 25" fill="none" xmlns="http://www.w3.org/2000/svg">
<path d="M22.5508 20.7031C21.0635 18.1318 18.7715 16.2881 16.0967 15.414C17.4198 14.6264 18.4477 13.4262 19.0227 11.9978C19.5976 10.5694 19.6878 8.99177 19.2794 7.50716C18.8709 6.02254 17.9864 4.71305 16.7617 3.77978C15.537 2.84651 14.0398 2.34106 12.5 2.34106C10.9602 2.34106 9.46302 2.84651 8.23831 3.77978C7.0136 4.71305 6.1291 6.02254 5.72065 7.50716C5.3122 8.99177 5.40238 10.5694 5.97734 11.9978C6.5523 13.4262 7.58025 14.6264 8.90333 15.414C6.22852 16.2871 3.93653 18.1308 2.44922 20.7031C2.39468 20.792 2.3585 20.891 2.34283 20.9941C2.32715 21.0973 2.33229 21.2025 2.35794 21.3036C2.38359 21.4048 2.42924 21.4997 2.49218 21.5829C2.55513 21.6661 2.6341 21.7359 2.72444 21.788C2.81478 21.8402 2.91466 21.8738 3.01818 21.8867C3.1217 21.8997 3.22676 21.8918 3.32717 21.8635C3.42759 21.8352 3.52131 21.787 3.60282 21.7219C3.68434 21.6568 3.75198 21.576 3.80176 21.4843C5.64161 18.3047 8.89356 16.4062 12.5 16.4062C16.1065 16.4062 19.3584 18.3047 21.1982 21.4843C21.248 21.576 21.3157 21.6568 21.3972 21.7219C21.4787 21.787 21.5724 21.8352 21.6728 21.8635C21.7732 21.8918 21.8783 21.8997 21.9818 21.8867C22.0854 21.8738 22.1852 21.8402 22.2756 21.788C22.3659 21.7359 22.4449 21.6661 22.5078 21.5829C22.5708 21.4997 22.6164 21.4048 22.6421 21.3036C22.6677 21.2025 22.6729 21.0973 22.6572 20.9941C22.6415 20.891 22.6053 20.792 22.5508 20.7031ZM7.03126 9.37497C7.03126 8.29335 7.35199 7.23603 7.95291 6.3367C8.55382 5.43737 9.40792 4.73642 10.4072 4.3225C11.4065 3.90859 12.5061 3.80029 13.5669 4.0113C14.6277 4.22231 15.6022 4.74316 16.367 5.50798C17.1318 6.2728 17.6527 7.24724 17.8637 8.30807C18.0747 9.3689 17.9664 10.4685 17.5525 11.4678C17.1386 12.4671 16.4376 13.3212 15.5383 13.9221C14.6389 14.523 13.5816 14.8437 12.5 14.8437C11.0501 14.8422 9.65998 14.2655 8.63473 13.2402C7.60947 12.215 7.03281 10.8249 7.03126 9.37497Z" fill="white"/>
</svg>
