<svg width="25" height="25" viewBox="0 0 25 25" fill="none" xmlns="http://www.w3.org/2000/svg">
<path d="M13.9615 13.9615L10.1048 15.8952L12.0385 12.0385L15.899 10.1087L13.9615 13.9615Z" fill="white"/>
<path fill-rule="evenodd" clip-rule="evenodd" d="M7.4443 4.6853C9.08879 3.58649 11.0222 3 13 3C15.6513 3.0028 18.1932 4.05727 20.068 5.93202C21.9427 7.80678 22.9972 10.3487 23 13C23 14.9778 22.4135 16.9112 21.3147 18.5557C20.2159 20.2002 18.6541 21.4819 16.8268 22.2388C14.9996 22.9957 12.9889 23.1937 11.0491 22.8078C9.10929 22.422 7.32746 21.4696 5.92894 20.0711C4.53041 18.6725 3.578 16.8907 3.19215 14.9509C2.8063 13.0111 3.00433 11.0004 3.76121 9.17316C4.51809 7.3459 5.79981 5.78412 7.4443 4.6853ZM8.29902 20.0355C9.69052 20.9653 11.3265 21.4615 13 21.4615C15.2434 21.459 17.3941 20.5667 18.9804 18.9804C20.5667 17.3941 21.459 15.2434 21.4615 13C21.4615 11.3265 20.9653 9.69051 20.0355 8.29902C19.1057 6.90753 17.7842 5.82299 16.2381 5.18256C14.6919 4.54212 12.9906 4.37456 11.3492 4.70105C9.70786 5.02754 8.20016 5.83342 7.01679 7.01679C5.83343 8.20016 5.02754 9.70786 4.70105 11.3492C4.37456 12.9906 4.54213 14.6919 5.18256 16.2381C5.823 17.7842 6.90753 19.1057 8.29902 20.0355Z" fill="white"/>
<path fill-rule="evenodd" clip-rule="evenodd" d="M17.2712 7.69615L11.1173 10.7731C10.9685 10.8478 10.8478 10.9685 10.7731 11.1173L7.69616 17.2712C7.63745 17.3885 7.60972 17.5189 7.61561 17.6499C7.6215 17.781 7.66081 17.9083 7.7298 18.0199C7.79879 18.1315 7.89517 18.2236 8.00979 18.2874C8.1244 18.3512 8.25343 18.3847 8.38462 18.3846C8.50404 18.3844 8.62182 18.3568 8.72885 18.3038L14.8827 15.2269C15.0315 15.1522 15.1522 15.0315 15.2269 14.8827L18.3038 8.72885C18.3764 8.58435 18.4017 8.42066 18.3759 8.26102C18.3502 8.10139 18.2748 7.95392 18.1604 7.83958C18.0461 7.72524 17.8986 7.64984 17.739 7.62409C17.5793 7.59835 17.4156 7.62356 17.2712 7.69615ZM10.1048 15.8952L13.9615 13.9615L15.899 10.1087L12.0385 12.0385L10.1048 15.8952Z" fill="white"/>
<path fill-rule="evenodd" clip-rule="evenodd" d="M13 21.4615C11.3265 21.4615 9.69052 20.9653 8.29902 20.0355C6.90753 19.1057 5.823 17.7842 5.18256 16.2381C4.54213 14.6919 4.37456 12.9906 4.70105 11.3492C5.02754 9.70786 5.83343 8.20016 7.01679 7.01679C8.20016 5.83342 9.70786 5.02754 11.3492 4.70105C12.9906 4.37456 14.6919 4.54212 16.2381 5.18256C17.7842 5.82299 19.1057 6.90753 20.0355 8.29902C20.9653 9.69051 21.4615 11.3265 21.4615 13C21.459 15.2434 20.5667 17.3941 18.9804 18.9804C17.3941 20.5667 15.2434 21.459 13 21.4615ZM11.1173 10.7731L17.2712 7.69615C17.4156 7.62356 17.5793 7.59835 17.739 7.62409C17.8986 7.64984 18.0461 7.72524 18.1604 7.83958C18.2748 7.95392 18.3502 8.10139 18.3759 8.26102C18.4017 8.42066 18.3764 8.58435 18.3038 8.72885L15.2269 14.8827C15.1522 15.0315 15.0315 15.1522 14.8827 15.2269L8.72885 18.3038C8.62182 18.3568 8.50404 18.3844 8.38462 18.3846C8.25343 18.3847 8.1244 18.3512 8.00979 18.2874C7.89517 18.2236 7.79879 18.1315 7.7298 18.0199C7.66081 17.9083 7.6215 17.781 7.61561 17.6499C7.60972 17.5189 7.63745 17.3885 7.69616 17.2712L10.7731 11.1173C10.8478 10.9685 10.9685 10.8478 11.1173 10.7731Z" fill="#FFE68B"/>
</svg>
