<svg width="30" height="25" viewBox="0 0 30 25" fill="none" xmlns="http://www.w3.org/2000/svg">
<path d="M21.1111 3H7.88889C7.38792 3 6.90748 3.16857 6.55324 3.46864C6.19901 3.7687 6 4.17568 6 4.60003V22.2004C6.00008 22.3432 6.04527 22.4833 6.13087 22.6063C6.21648 22.7293 6.33937 22.8306 6.48681 22.8998C6.63425 22.969 6.80086 23.0035 6.96935 22.9997C7.13784 22.996 7.30207 22.9541 7.445 22.8784L14.5 19.1433L21.5562 22.8784C21.6991 22.9538 21.8632 22.9955 22.0315 22.9991C22.1998 23.0027 22.3662 22.9682 22.5135 22.899C22.6607 22.8299 22.7835 22.7287 22.869 22.6058C22.9546 22.483 22.9998 22.343 23 22.2004V4.60003C23 4.17568 22.801 3.7687 22.4468 3.46864C22.0925 3.16857 21.6121 3 21.1111 3ZM21.1111 20.7574L14.9994 17.5223C14.8493 17.4428 14.6758 17.4007 14.4988 17.4007C14.3218 17.4007 14.1484 17.4428 13.9983 17.5223L7.88889 20.7574V4.60003H21.1111V20.7574Z" fill="white"/>
<path d="M21.1111 20.7574L14.9994 17.5223C14.8493 17.4428 14.6758 17.4007 14.4988 17.4007C14.3218 17.4007 14.1484 17.4428 13.9983 17.5223L7.88889 20.7574V4.60003H21.1111V20.7574Z" fill="#FFE68B"/>
</svg>
