<svg width="25" height="25" viewBox="0 0 25 25" fill="none" xmlns="http://www.w3.org/2000/svg">
<path d="M14.1538 12.9959C14.1538 13.2241 14.0862 13.4472 13.9594 13.6369C13.8326 13.8267 13.6524 13.9746 13.4416 14.0619C13.2307 14.1492 12.9987 14.1721 12.7749 14.1276C12.5511 14.0831 12.3455 13.9732 12.1841 13.8118C12.0227 13.6504 11.9128 13.4448 11.8683 13.221C11.8238 12.9972 11.8467 12.7652 11.934 12.5543C12.0213 12.3435 12.1692 12.1633 12.359 12.0365C12.5487 11.9097 12.7718 11.8421 13 11.8421C13.306 11.8421 13.5995 11.9636 13.8159 12.18C14.0323 12.3964 14.1538 12.6899 14.1538 12.9959ZM8.76923 11.8421C8.54102 11.8421 8.31794 11.9097 8.12819 12.0365C7.93844 12.1633 7.79055 12.3435 7.70322 12.5543C7.61588 12.7652 7.59303 12.9972 7.63756 13.221C7.68208 13.4448 7.79197 13.6504 7.95334 13.8118C8.11471 13.9732 8.3203 14.0831 8.54413 14.1276C8.76795 14.1721 8.99995 14.1492 9.21079 14.0619C9.42163 13.9746 9.60183 13.8267 9.72862 13.6369C9.85541 13.4472 9.92308 13.2241 9.92308 12.9959C9.92308 12.6899 9.80151 12.3964 9.58512 12.18C9.36874 11.9636 9.07525 11.8421 8.76923 11.8421ZM17.2308 11.8421C17.0026 11.8421 16.7795 11.9097 16.5897 12.0365C16.4 12.1633 16.2521 12.3435 16.1648 12.5543C16.0774 12.7652 16.0546 12.9972 16.0991 13.221C16.1436 13.4448 16.2535 13.6504 16.4149 13.8118C16.5762 13.9732 16.7818 14.0831 17.0057 14.1276C17.2295 14.1721 17.4615 14.1492 17.6723 14.0619C17.8832 13.9746 18.0634 13.8267 18.1902 13.6369C18.3169 13.4472 18.3846 13.2241 18.3846 12.9959C18.3846 12.6899 18.263 12.3964 18.0467 12.18C17.8303 11.9636 17.5368 11.8421 17.2308 11.8421ZM23 12.9959C23.0004 14.7224 22.5538 16.4195 21.7036 17.9222C20.8535 19.4249 19.6288 20.6818 18.1488 21.5707C16.6687 22.4597 14.9837 22.9502 13.2578 22.9948C11.5319 23.0393 9.8239 22.6362 8.3 21.8247L5.02596 22.9161C4.75489 23.0065 4.464 23.0196 4.18589 22.954C3.90778 22.8883 3.65345 22.7466 3.4514 22.5445C3.24934 22.3424 3.10755 22.0881 3.04192 21.81C2.97629 21.5319 2.98941 21.241 3.07981 20.9699L4.17115 17.6959C3.45783 16.3548 3.05942 14.8688 3.00615 13.3507C2.95288 11.8326 3.24616 10.3223 3.86372 8.93449C4.48128 7.54667 5.4069 6.31777 6.57031 5.34108C7.73371 4.3644 9.10434 3.66559 10.5781 3.2977C12.0519 2.92981 13.5902 2.90252 15.0761 3.21789C16.562 3.53325 17.9566 4.183 19.1539 5.11779C20.3513 6.05259 21.3199 7.24787 21.9863 8.61291C22.6527 9.97795 22.9994 11.4769 23 12.9959ZM21.4615 12.9959C21.4612 11.6979 21.1622 10.4175 20.5878 9.25354C20.0134 8.08961 19.1789 7.07343 18.1489 6.28362C17.1189 5.49381 15.921 4.95154 14.6479 4.69877C13.3748 4.446 12.0606 4.48949 10.807 4.8259C9.55335 5.1623 8.39394 5.78259 7.41842 6.63878C6.4429 7.49496 5.67742 8.5641 5.18121 9.76346C4.685 10.9628 4.47136 12.2603 4.55682 13.5554C4.64228 14.8505 5.02454 16.1087 5.67404 17.2324C5.72855 17.3268 5.7624 17.4316 5.77334 17.54C5.78428 17.6485 5.77206 17.758 5.7375 17.8613L4.53846 21.4574L8.13462 20.2584C8.21294 20.2317 8.29513 20.218 8.37788 20.218C8.51298 20.2183 8.64564 20.2541 8.7625 20.3219C10.0488 21.0661 11.5085 21.4584 12.9947 21.4594C14.4808 21.4603 15.941 21.0698 17.2282 20.3272C18.5155 19.5846 19.5845 18.516 20.3277 17.229C21.0708 15.942 21.4619 14.482 21.4615 12.9959Z" fill="white"/>
<path fill-rule="evenodd" clip-rule="evenodd" d="M21.4615 12.9959C21.4612 11.6979 21.1622 10.4175 20.5878 9.25354C20.0134 8.08961 19.1789 7.07343 18.1489 6.28362C17.1189 5.49381 15.921 4.95154 14.6479 4.69877C13.3748 4.446 12.0606 4.48949 10.807 4.8259C9.55335 5.1623 8.39394 5.78259 7.41842 6.63878C6.4429 7.49496 5.67742 8.5641 5.18121 9.76346C4.685 10.9628 4.47136 12.2603 4.55682 13.5554C4.64228 14.8505 5.02454 16.1087 5.67404 17.2324C5.72855 17.3268 5.7624 17.4316 5.77334 17.54C5.78428 17.6485 5.77206 17.758 5.7375 17.8613L4.53846 21.4574L8.13462 20.2584C8.21294 20.2317 8.29513 20.218 8.37788 20.218C8.51298 20.2183 8.64564 20.2541 8.7625 20.3219C10.0488 21.0661 11.5085 21.4584 12.9947 21.4594C14.4808 21.4603 15.941 21.0698 17.2282 20.3272C18.5155 19.5846 19.5845 18.516 20.3277 17.229C21.0708 15.942 21.4619 14.482 21.4615 12.9959ZM13.9594 13.6369C14.0862 13.4472 14.1538 13.2241 14.1538 12.9959C14.1538 12.6899 14.0323 12.3964 13.8159 12.18C13.5995 11.9636 13.306 11.8421 13 11.8421C12.7718 11.8421 12.5487 11.9097 12.359 12.0365C12.1692 12.1633 12.0213 12.3435 11.934 12.5543C11.8467 12.7652 11.8238 12.9972 11.8683 13.221C11.9128 13.4448 12.0227 13.6504 12.1841 13.8118C12.3455 13.9732 12.5511 14.0831 12.7749 14.1276C12.9987 14.1721 13.2307 14.1492 13.4416 14.0619C13.6524 13.9746 13.8326 13.8267 13.9594 13.6369ZM8.12819 12.0365C8.31794 11.9097 8.54102 11.8421 8.76923 11.8421C9.07525 11.8421 9.36874 11.9636 9.58512 12.18C9.80151 12.3964 9.92308 12.6899 9.92308 12.9959C9.92308 13.2241 9.85541 13.4472 9.72862 13.6369C9.60183 13.8267 9.42163 13.9746 9.21079 14.0619C8.99995 14.1492 8.76795 14.1721 8.54413 14.1276C8.3203 14.0831 8.11471 13.9732 7.95334 13.8118C7.79197 13.6504 7.68208 13.4448 7.63756 13.221C7.59303 12.9972 7.61588 12.7652 7.70322 12.5543C7.79055 12.3435 7.93844 12.1633 8.12819 12.0365ZM16.5897 12.0365C16.7795 11.9097 17.0026 11.8421 17.2308 11.8421C17.5368 11.8421 17.8303 11.9636 18.0467 12.18C18.263 12.3964 18.3846 12.6899 18.3846 12.9959C18.3846 13.2241 18.3169 13.4472 18.1902 13.6369C18.0634 13.8267 17.8832 13.9746 17.6723 14.0619C17.4615 14.1492 17.2295 14.1721 17.0057 14.1276C16.7818 14.0831 16.5762 13.9732 16.4149 13.8118C16.2535 13.6504 16.1436 13.4448 16.0991 13.221C16.0546 12.9972 16.0774 12.7652 16.1648 12.5543C16.2521 12.3435 16.4 12.1633 16.5897 12.0365Z" fill="#FFE68B"/>
</svg>
