<svg width="28" height="27" viewBox="0 0 28 27" fill="none" xmlns="http://www.w3.org/2000/svg">
<path fill-rule="evenodd" clip-rule="evenodd" d="M26.3069 22.9582C24.644 18.8466 20.1759 16.4907 14.0434 16.4907H13.9992C7.85025 16.4639 3.35925 18.8364 1.69313 22.9582L1.5 23.4368L2.04664 23.6979C5.25123 25.2258 9.24795 26 13.9223 26C13.9746 26 14.027 26 14.0777 26C18.8175 26 22.7029 25.2463 25.9534 23.6979L26.5 23.4368L26.3069 22.9582Z" fill="#FFE68B"/>
<path fill-rule="evenodd" clip-rule="evenodd" d="M14 13.6394C18.4567 13.6394 22.0835 10.8049 22.0835 7.32032C22.0835 3.83448 18.4567 1 14 1C9.54341 1 5.91821 3.83448 5.91821 7.32032C5.91821 10.8049 9.54341 13.6394 14 13.6394Z" fill="#FFE68B"/>
<path fill-rule="evenodd" clip-rule="evenodd" d="M26.3069 22.9582C24.644 18.8466 20.1759 16.4907 14.0434 16.4907H13.9992C7.85025 16.4639 3.35925 18.8364 1.69313 22.9582L1.5 23.4368L2.04664 23.6979C5.25123 25.2258 9.24795 26 13.9223 26C13.9746 26 14.027 26 14.0777 26C18.8175 26 22.7029 25.2463 25.9534 23.6979L26.5 23.4368L26.3069 22.9582Z" stroke="white"/>
<path fill-rule="evenodd" clip-rule="evenodd" d="M14 13.6394C18.4567 13.6394 22.0835 10.8049 22.0835 7.32032C22.0835 3.83448 18.4567 1 14 1C9.54341 1 5.91821 3.83448 5.91821 7.32032C5.91821 10.8049 9.54341 13.6394 14 13.6394Z" stroke="white"/>
</svg>
