<svg width="25" height="25" viewBox="0 0 25 25" fill="none" xmlns="http://www.w3.org/2000/svg">
<path d="M3.13913 22.4649C6.44827 22.5064 19.6727 22.5407 21.45 22.5452C21.4125 22.5403 21.3754 22.5327 21.3389 22.5224C21.2385 22.4941 21.1447 22.446 21.0632 22.3809C20.9817 22.3157 20.9141 22.235 20.8643 22.1433C19.0245 18.9636 15.7725 17.0652 12.1661 17.0652C8.55961 17.0652 5.30765 18.9636 3.46781 22.1433C3.41802 22.235 3.35038 22.3157 3.26887 22.3809C3.22841 22.4132 3.18493 22.4413 3.13913 22.4649Z" fill="#FFE68B"/>
<path d="M6.6973 10.0339C6.6973 8.95229 7.01804 7.89496 7.61895 6.99563C8.21987 6.0963 9.07397 5.39536 10.0733 4.98144C11.0725 4.56752 12.1721 4.45922 13.233 4.67024C14.2938 4.88125 15.2682 5.4021 16.033 6.16692C16.7979 6.93173 17.3187 7.90617 17.5297 8.96701C17.7407 10.0278 17.6324 11.1274 17.2185 12.1267C16.8046 13.126 16.1037 13.9801 15.2043 14.581C14.305 15.1819 13.2477 15.5027 12.1661 15.5027C10.7161 15.5011 9.32603 14.9244 8.30078 13.8992C7.27552 12.8739 6.69885 11.4838 6.6973 10.0339Z" fill="#FFE68B"/>
<path fill-rule="evenodd" clip-rule="evenodd" d="M22.2168 21.362C20.7295 18.7907 18.4375 16.947 15.7627 16.073C17.0858 15.2853 18.1138 14.0852 18.6887 12.6568C19.2637 11.2284 19.3539 9.6507 18.9454 8.16609C18.537 6.68148 17.6525 5.37199 16.4277 4.43872C15.203 3.50545 13.7058 3 12.1661 3C10.6263 3 9.12907 3.50545 7.90436 4.43872C6.67965 5.37199 5.79515 6.68148 5.3867 8.16609C4.97824 9.6507 5.06842 11.2284 5.64338 12.6568C6.21834 14.0852 7.24629 15.2853 8.56937 16.073C5.89457 16.946 3.60257 18.7898 2.11527 21.362C2.06073 21.451 2.02455 21.5499 2.00887 21.6531C1.99319 21.7562 1.99833 21.8614 2.02399 21.9626C2.04964 22.0637 2.09528 22.1587 2.15823 22.2418C2.22118 22.325 2.30015 22.3948 2.39049 22.447C2.40102 22.4531 2.67076 22.4591 3.13913 22.4649C3.18493 22.4413 3.22841 22.4132 3.26887 22.3809C3.35038 22.3157 3.41802 22.235 3.46781 22.1433C5.30765 18.9636 8.55961 17.0652 12.1661 17.0652C15.7725 17.0652 19.0245 18.9636 20.8643 22.1433C20.9141 22.235 20.9817 22.3157 21.0632 22.3809C21.1447 22.446 21.2385 22.4941 21.3389 22.5224C21.3754 22.5327 21.4125 22.5403 21.45 22.5452C21.5791 22.5452 21.6479 22.5457 21.6479 22.5457C21.7514 22.5327 21.8513 22.4992 21.9416 22.447C22.032 22.3948 22.1109 22.325 22.1739 22.2418C22.2368 22.1587 22.2825 22.0637 22.3081 21.9626C22.3338 21.8614 22.3389 21.7562 22.3232 21.6531C22.3076 21.5499 22.2714 21.451 22.2168 21.362ZM7.61895 6.99563C7.01804 7.89496 6.6973 8.95229 6.6973 10.0339C6.69885 11.4838 7.27552 12.8739 8.30078 13.8992C9.32603 14.9244 10.7161 15.5011 12.1661 15.5027C13.2477 15.5027 14.305 15.1819 15.2043 14.581C16.1037 13.9801 16.8046 13.126 17.2185 12.1267C17.6324 11.1274 17.7407 10.0278 17.5297 8.96701C17.3187 7.90617 16.7979 6.93173 16.033 6.16692C15.2682 5.4021 14.2938 4.88125 13.233 4.67024C12.1721 4.45922 11.0725 4.56752 10.0733 4.98144C9.07397 5.39536 8.21987 6.0963 7.61895 6.99563Z" fill="white"/>
</svg>
