<svg width="28" height="27" viewBox="0 0 28 27" fill="none" xmlns="http://www.w3.org/2000/svg">
<path fill-rule="evenodd" clip-rule="evenodd" d="M10.2595 24.4643V20.6308C10.2595 19.6558 11.0962 18.8635 12.1329 18.857H15.9304C16.972 18.857 17.8165 19.6512 17.8165 20.6308V24.4762C17.8162 25.304 18.5188 25.9806 19.3987 26H21.9304C24.4541 26 26.5 24.0758 26.5 21.7023V10.7973C26.4865 9.86353 26.0204 8.98669 25.2342 8.41629L16.5759 1.85663C15.0591 0.714458 12.9029 0.714458 11.3861 1.85663L2.76582 8.4282C1.97666 8.99628 1.50972 9.87458 1.5 10.8092V21.7023C1.5 24.0758 3.54589 26 6.06962 26H8.60127C9.5031 26 10.2342 25.3124 10.2342 24.4643" fill="#FFE68B"/>
<path d="M10.2595 24.4643V20.6308C10.2595 19.6558 11.0962 18.8635 12.1329 18.857H15.9304C16.972 18.857 17.8165 19.6512 17.8165 20.6308V24.4762C17.8162 25.304 18.5188 25.9806 19.3987 26H21.9304C24.4541 26 26.5 24.0758 26.5 21.7023V10.7973C26.4865 9.86353 26.0204 8.98669 25.2342 8.41629L16.5759 1.85663C15.0591 0.714458 12.9029 0.714458 11.3861 1.85663L2.76582 8.4282C1.97666 8.99628 1.50972 9.87458 1.5 10.8092V21.7023C1.5 24.0758 3.54589 26 6.06962 26H8.60127C9.5031 26 10.2342 25.3124 10.2342 24.4643" stroke="white" stroke-width="1.5" stroke-linecap="round" stroke-linejoin="round"/>
</svg>
