<svg width="27" height="27" viewBox="0 0 27 27" fill="none" xmlns="http://www.w3.org/2000/svg">
<path fill-rule="evenodd" clip-rule="evenodd" d="M17.9464 14.9536H19.9536V13.0258H17.9464V14.9536ZM13.2552 14.9536H15.2636V13.0258H13.2552V14.9536ZM8.56516 14.9536H10.5736V13.0258H8.56516V14.9536ZM22.9279 4.65772C20.623 2.29935 17.5571 1 14.2914 1C11.027 1 7.9585 2.29935 5.65369 4.65901C3.34259 7.02252 2.07149 10.1649 2.07401 13.5051C2.07401 16.893 3.81235 20.1214 4.44288 21.1804L1.5 25.982L2.64675 25.9717C2.7196 25.9717 9.94428 25.9075 14.0264 25.9974C14.1181 25.9987 14.2085 26 14.2989 26C17.5596 26 20.6142 24.7058 22.9279 22.3371C27.6907 17.4623 27.6907 9.53254 22.9279 4.65772Z" fill="#FFE68B" stroke="white"/>
</svg>
