<svg width="22" height="27" viewBox="0 0 22 27" fill="none" xmlns="http://www.w3.org/2000/svg">
<path d="M12.9225 0.231048C12.7992 0.128557 12.6531 0.0572064 12.4965 0.023012C12.3399 -0.0111825 12.1773 -0.00721869 12.0225 0.0345691C11.8678 0.0763568 11.7253 0.154744 11.6072 0.263121C11.489 0.371499 11.3987 0.50669 11.3438 0.657298L8.59375 8.20855L5.57375 5.2823C5.47233 5.18393 5.35121 5.10817 5.21838 5.06001C5.08556 5.01185 4.94403 4.99238 4.80313 5.00289C4.66223 5.01341 4.52516 5.05365 4.40095 5.12099C4.27674 5.18833 4.1682 5.28122 4.0825 5.39355C1.375 8.94105 0 12.5098 0 15.9998C0 18.9172 1.15893 21.7151 3.22183 23.778C5.28473 25.8409 8.08262 26.9998 11 26.9998C13.9174 26.9998 16.7153 25.8409 18.7782 23.778C20.8411 21.7151 22 18.9172 22 15.9998C22 8.56855 15.6513 2.4998 12.9225 0.231048ZM17.9862 17.1673C17.7269 18.6157 17.0301 19.9498 15.9896 20.9902C14.949 22.0305 13.6147 22.7271 12.1663 22.986C12.1113 22.9955 12.0557 23.0001 12 22.9998C11.7492 22.9997 11.5075 22.9054 11.323 22.7355C11.1384 22.5656 11.0245 22.3326 11.0037 22.0826C10.9829 21.8326 11.0569 21.5839 11.2108 21.3859C11.3648 21.1879 11.5876 21.055 11.835 21.0135C13.9062 20.6648 15.6637 18.9073 16.015 16.8323C16.0594 16.5707 16.2059 16.3375 16.4223 16.184C16.6387 16.0304 16.9072 15.9691 17.1688 16.0135C17.4303 16.058 17.6635 16.2045 17.8171 16.4209C17.9706 16.6372 18.0319 16.9057 17.9875 17.1673H17.9862Z" fill="#FFE27B"/>
</svg>
