<svg width="25" height="25" viewBox="0 0 25 25" fill="none" xmlns="http://www.w3.org/2000/svg">
<path fill-rule="evenodd" clip-rule="evenodd" d="M19.4545 14.3635C19.4545 9.9116 15.9976 6.06439 13.832 4.09297L11.6809 9.99178C11.6368 10.1129 11.563 10.2211 11.4663 10.3065C11.3697 10.3918 11.2532 10.4516 11.1275 10.4804C11.0018 10.5092 10.8709 10.5061 10.7467 10.4714C10.6226 10.4366 10.509 10.3714 10.4165 10.2815L7.86943 7.81075C6.32687 10.0372 5.54545 12.2385 5.54545 14.3635C5.54545 16.2079 6.27816 17.9769 7.58239 19.2811C8.88662 20.5853 10.6555 21.318 12.5 21.318C14.3445 21.318 16.1134 20.5853 17.4176 19.2811C18.7218 17.9769 19.4545 16.2079 19.4545 14.3635ZM16.3556 18.2197C17.1596 17.4158 17.6981 16.3848 17.8985 15.2656C17.9328 15.0635 17.8864 14.856 17.7677 14.6888C17.6491 14.5216 17.4689 14.4084 17.2668 14.3741C17.0646 14.3398 16.8572 14.3871 16.69 14.5058C16.5228 14.6244 16.4096 14.8047 16.3752 15.0068C16.1038 16.6102 14.7457 17.9683 13.1452 18.2377C12.9541 18.2698 12.7819 18.3725 12.6629 18.5255C12.5439 18.6785 12.4868 18.8706 12.5029 19.0638C12.5189 19.257 12.607 19.4371 12.7496 19.5683C12.8922 19.6996 13.0789 19.7725 13.2727 19.7726C13.3158 19.7723 13.3587 19.7688 13.4012 19.7619C14.5204 19.5618 15.5515 19.0236 16.3556 18.2197Z" fill="#FFE68B"/>
<path fill-rule="evenodd" clip-rule="evenodd" d="M16.3556 18.2197C17.1596 17.4158 17.6981 16.3848 17.8985 15.2656C17.9328 15.0635 17.8864 14.856 17.7677 14.6888C17.6491 14.5216 17.4689 14.4084 17.2668 14.3741C17.0646 14.3398 16.8572 14.3871 16.69 14.5058C16.5228 14.6244 16.4096 14.8047 16.3752 15.0068C16.1038 16.6102 14.7457 17.9683 13.1452 18.2377C12.9541 18.2698 12.7819 18.3725 12.6629 18.5255C12.5439 18.6785 12.4868 18.8706 12.5029 19.0638C12.5189 19.257 12.607 19.4371 12.7496 19.5683C12.8922 19.6996 13.0789 19.7725 13.2727 19.7726C13.3158 19.7723 13.3587 19.7688 13.4012 19.7619C14.5204 19.5618 15.5515 19.0236 16.3556 18.2197Z" fill="white"/>
<path fill-rule="evenodd" clip-rule="evenodd" d="M21 14.3635C21 16.6178 20.1045 18.7798 18.5104 20.3739C16.9163 21.9679 14.7543 22.8635 12.5 22.8635C10.2457 22.8635 8.08365 21.9679 6.48959 20.3739C4.89553 18.7798 4 16.6178 4 14.3635C4 11.6667 5.0625 8.90899 7.15466 6.16774C7.22088 6.08094 7.30475 6.00916 7.40073 5.95713C7.49672 5.9051 7.60263 5.87399 7.71151 5.86587C7.82039 5.85775 7.92975 5.87279 8.03239 5.91001C8.13503 5.94722 8.22862 6.00576 8.30699 6.08178L10.6368 8.34297L12.7618 2.50791C12.8042 2.39153 12.874 2.28707 12.9653 2.20332C13.0566 2.11957 13.1667 2.059 13.2863 2.02671C13.4059 1.99442 13.5315 1.99136 13.6525 2.01778C13.7735 2.0442 13.8864 2.09934 13.9817 2.17854C16.0941 3.93166 21 8.62115 21 14.3635ZM13.832 4.09297C15.9976 6.06439 19.4545 9.9116 19.4545 14.3635C19.4545 16.2079 18.7218 17.9769 17.4176 19.2811C16.1134 20.5853 14.3445 21.318 12.5 21.318C10.6555 21.318 8.88662 20.5853 7.58239 19.2811C6.27816 17.9769 5.54545 16.2079 5.54545 14.3635C5.54545 12.2385 6.32687 10.0372 7.86943 7.81075L10.4165 10.2815C10.509 10.3714 10.6226 10.4366 10.7467 10.4714C10.8709 10.5061 11.0018 10.5092 11.1275 10.4804C11.2532 10.4516 11.3697 10.3918 11.4663 10.3065C11.563 10.2211 11.6368 10.1129 11.6809 9.99178L13.832 4.09297Z" fill="white"/>
</svg>
