<svg width="25" height="25" viewBox="0 0 25 25" fill="none" xmlns="http://www.w3.org/2000/svg">
<path d="M20.1875 20.969H15.5V15.5002C15.5 15.293 15.4177 15.0943 15.2712 14.9478C15.1247 14.8013 14.9259 14.719 14.7187 14.719H10.0313C9.82405 14.719 9.62534 14.8013 9.47883 14.9478C9.33231 15.0943 9.25 15.293 9.25 15.5002V20.969H4.56251V12.3752L12.375 4.56275L20.1875 12.3752V20.969Z" fill="#FFE68B"/>
<path fill-rule="evenodd" clip-rule="evenodd" d="M21.292 11.2698L13.4795 3.45728C13.1865 3.16448 12.7892 3 12.375 3C11.9608 3 11.5635 3.16448 11.2705 3.45728L3.45802 11.2698C3.31222 11.4145 3.19665 11.5867 3.11802 11.7765C3.03939 11.9663 2.99928 12.1698 3.00001 12.3752V21.7502C3.00001 21.9574 3.08232 22.1561 3.22883 22.3027C3.37535 22.4492 3.57406 22.5315 3.78126 22.5315H10.0313C10.2385 22.5315 10.4372 22.4492 10.5837 22.3027C10.7302 22.1561 10.8125 21.9574 10.8125 21.7502V16.2815H13.9375V21.7502C13.9375 21.9574 14.0198 22.1561 14.1663 22.3027C14.3128 22.4492 14.5115 22.5315 14.7187 22.5315H20.9687C21.1759 22.5315 21.3747 22.4492 21.5212 22.3027C21.6677 22.1561 21.75 21.9574 21.75 21.7502V12.3752C21.7507 12.1698 21.7106 11.9663 21.632 11.7765C21.5534 11.5867 21.4378 11.4145 21.292 11.2698ZM15.5 20.969H20.1875V12.3752L12.375 4.56275L4.56251 12.3752V20.969H9.25V15.5002C9.25 15.293 9.33231 15.0943 9.47883 14.9478C9.62534 14.8013 9.82405 14.719 10.0313 14.719H14.7187C14.9259 14.719 15.1247 14.8013 15.2712 14.9478C15.4177 15.0943 15.5 15.293 15.5 15.5002V20.969Z" fill="white"/>
</svg>
