<svg width="25" height="25" viewBox="0 0 25 25" fill="none" xmlns="http://www.w3.org/2000/svg">
<path d="M21.7844 17.0383C21.2351 16.0921 20.4185 13.4148 20.4185 9.91803C20.4185 7.81804 19.5843 5.80406 18.0994 4.31914C16.6145 2.83422 14.6005 2 12.5005 2C10.4005 2 8.38652 2.83422 6.9016 4.31914C5.41668 5.80406 4.58246 7.81804 4.58246 9.91803C4.58246 13.4158 3.76492 16.0921 3.21561 17.0383C3.07533 17.2789 3.00097 17.5522 3.00001 17.8306C2.99905 18.1091 3.07154 18.3829 3.21016 18.6244C3.34879 18.8659 3.54864 19.0666 3.78957 19.2062C4.0305 19.3458 4.30399 19.4195 4.58246 19.4197H8.62165C8.80433 20.3136 9.29015 21.117 9.99694 21.6939C10.7037 22.2709 11.5881 22.586 12.5005 22.586C13.4129 22.586 14.2973 22.2709 15.004 21.6939C15.7108 21.117 16.1967 20.3136 16.3793 19.4197H20.4185C20.6969 19.4193 20.9703 19.3455 21.2111 19.2059C21.4519 19.0662 21.6516 18.8655 21.7901 18.624C21.9286 18.3825 22.001 18.1088 22 17.8304C21.999 17.552 21.9246 17.2788 21.7844 17.0383ZM12.5005 21.0033C12.0094 21.0031 11.5304 20.8508 11.1295 20.5672C10.7286 20.2836 10.4254 19.8827 10.2617 19.4197H14.7393C14.5756 19.8827 14.2724 20.2836 13.8715 20.5672C13.4706 20.8508 12.9916 21.0031 12.5005 21.0033ZM4.58246 17.8361C5.34457 16.5256 6.16607 13.4891 6.16607 9.91803C6.16607 8.23804 6.83344 6.62685 8.02138 5.43892C9.20931 4.25098 10.8205 3.58361 12.5005 3.58361C14.1805 3.58361 15.7917 4.25098 16.9796 5.43892C18.1675 6.62685 18.8349 8.23804 18.8349 9.91803C18.8349 13.4861 19.6544 16.5227 20.4185 17.8361H4.58246Z" fill="white"/>
<path d="M4.58246 17.8361C5.34457 16.5256 6.16607 13.4891 6.16607 9.91803C6.16607 8.23804 6.83344 6.62685 8.02138 5.43892C9.20931 4.25098 10.8205 3.58361 12.5005 3.58361C14.1805 3.58361 15.7917 4.25098 16.9796 5.43892C18.1675 6.62685 18.8349 8.23804 18.8349 9.91803C18.8349 13.4861 19.6544 16.5227 20.4185 17.8361H4.58246Z" fill="#FFE68B"/>
<path d="M12.5005 21.0033C12.0094 21.0031 11.5304 20.8508 11.1295 20.5672C10.7286 20.2836 10.4254 19.8827 10.2617 19.4197H14.7393C14.5756 19.8827 14.2724 20.2836 13.8715 20.5672C13.4706 20.8508 12.9916 21.0031 12.5005 21.0033Z" fill="#FFE68B"/>
</svg>
