<svg width="22" height="22" viewBox="0 0 22 22" fill="none" xmlns="http://www.w3.org/2000/svg">
<path fill-rule="evenodd" clip-rule="evenodd" d="M20.6667 20.6704C20.8506 20.4876 20.8511 20.1901 20.6678 20.0066L16.5139 15.8488C17.9281 14.2693 18.7944 12.1929 18.7944 9.90555C18.7944 4.98875 14.8094 1 9.89721 1C4.98502 1 1 4.98875 1 9.90555C1 14.8224 4.98502 18.8111 9.89721 18.8111C12.1918 18.8111 14.2709 17.9346 15.849 16.5097L20.0046 20.6692C20.1872 20.8521 20.4834 20.8526 20.6667 20.6704ZM1.93655 9.90555C1.93655 5.51371 5.50948 1.93743 9.89721 1.93743C14.2849 1.93743 17.8579 5.51371 17.8579 9.90555C17.8579 14.2974 14.2849 17.8737 9.89721 17.8737C5.50948 17.8737 1.93655 14.2974 1.93655 9.90555Z" fill="#333333" stroke="#333333" stroke-width="0.852466" stroke-linecap="round" stroke-linejoin="round"/>
</svg>
