<svg width="9" height="9" viewBox="0 0 9 9" fill="none" xmlns="http://www.w3.org/2000/svg">
<path d="M4.16668 7.50001C4.90625 7.49986 5.62451 7.25227 6.20709 6.79668L8.03876 8.62834L8.62793 8.03918L6.79626 6.20751C7.25209 5.62487 7.49983 4.90644 7.50001 4.16668C7.50001 2.32876 6.00459 0.833344 4.16668 0.833344C2.32876 0.833344 0.833344 2.32876 0.833344 4.16668C0.833344 6.00459 2.32876 7.50001 4.16668 7.50001ZM4.16668 1.66668C5.54543 1.66668 6.66668 2.78793 6.66668 4.16668C6.66668 5.54543 5.54543 6.66668 4.16668 6.66668C2.78793 6.66668 1.66668 5.54543 1.66668 4.16668C1.66668 2.78793 2.78793 1.66668 4.16668 1.66668Z" fill="#848484"/>
</svg>
