<svg width="28" height="28" viewBox="0 0 28 27" fill="none" xmlns="http://www.w3.org/2000/svg">
<path fill-rule="evenodd" clip-rule="evenodd" d="M26.4987 7.95238L25.6195 6.54762C24.8756 5.35898 23.2272 4.94893 21.9345 5.63095C21.3191 5.96472 20.5848 6.05942 19.8935 5.89415C19.2022 5.72889 18.6107 5.31725 18.2494 4.75C18.017 4.38945 17.8921 3.97878 17.8874 3.55952C17.9084 2.88735 17.633 2.23599 17.1239 1.75382C16.6148 1.27164 15.9154 0.999723 15.1851 1H13.4137C12.6981 0.999993 12.0121 1.26251 11.5074 1.72946C11.0026 2.19642 10.7208 2.82931 10.7243 3.4881C10.703 4.84827 9.49936 5.94062 8.02191 5.94048C7.56656 5.93612 7.12052 5.82114 6.72892 5.60714C5.43616 4.92512 3.78774 5.33517 3.0439 6.52381L2.10002 7.95238C1.35709 9.13954 1.79639 10.6563 3.08269 11.3452C3.91881 11.7897 4.43388 12.6111 4.43388 13.5C4.43388 14.3889 3.91881 15.2103 3.08269 15.6548C1.79803 16.339 1.35825 17.8521 2.10002 19.0357L2.99219 20.4524C3.3407 21.0314 3.92545 21.4586 4.61704 21.6396C5.30863 21.8206 6.05004 21.7404 6.6772 21.4167C7.29374 21.0854 8.02844 20.9947 8.718 21.1646C9.40755 21.3345 9.99483 21.751 10.3493 22.3214C10.5817 22.682 10.7066 23.0927 10.7113 23.5119C10.7113 24.886 11.9212 26 13.4137 26H15.1851C16.6725 26 17.8803 24.8933 17.8874 23.5238C17.884 22.863 18.1676 22.2282 18.6751 21.7609C19.1826 21.2936 19.872 21.0325 20.5898 21.0357C21.044 21.0469 21.4882 21.1614 21.8827 21.369C23.1721 22.0531 24.8195 21.6486 25.5678 20.4643L26.4987 19.0357C26.8591 18.4662 26.958 17.788 26.7735 17.1512C26.5891 16.5144 26.1365 15.9715 25.516 15.6429C24.8956 15.3142 24.443 14.7714 24.2586 14.1345C24.0741 13.4977 24.173 12.8195 24.5334 12.25C24.7677 11.8733 25.1069 11.561 25.516 11.3452C26.7946 10.6567 27.2329 9.14877 26.4987 7.96429V7.95238Z" fill="#D3D3D3" stroke="black" stroke-width="1.5" stroke-linecap="round" stroke-linejoin="round"/>
<ellipse cx="14.3058" cy="13.5" rx="3.72381" ry="3.42857" fill="white" stroke="black" stroke-width="1.5" stroke-linecap="round" stroke-linejoin="round"/>
</svg>
